<svg viewBox='0 0 1024 1024' xmlns='http://www.w3.org/2000/svg'>
  <g filter='url(#noise)'>
    <ellipse cx="256" cy="256" rx="512" ry="512" fill="#d1edf7"/>
    <path fill="#a8d2f0" d="M20,-4.3C35.9,-4.1,65.7,-2.1,74.2,8.5C82.7,19.1,70,38.2,54.1,40.8C38.2,43.3,19.1,29.4,7.6,21.8C-3.9,14.2,-7.7,12.9,-13.4,10.3C-19.1,7.7,-26.7,3.9,-36,-9.3C-45.3,-22.5,-56.4,-45,-50.7,-45.2C-45,-45.3,-22.5,-23,-10.2,-12.7C2.1,-2.5,4.1,-4.4,20,-4.3Z" transform="translate(128, 448) scale(5)"/>
    <path fill="#c77bf2" d="M32,-40.6C32.1,-32,16.1,-16,19.9,3.8C23.7,23.6,47.2,47.1,47.1,59.3C47.1,71.6,23.6,72.4,6.5,66C-10.7,59.5,-21.3,45.8,-35.9,33.5C-50.5,21.3,-69,10.7,-74.3,-5.3C-79.5,-21.2,-71.5,-42.3,-56.9,-50.9C-42.3,-59.5,-21.2,-55.5,-2.6,-52.9C16,-50.3,32,-49.1,32,-40.6Z" transform="translate(960, 128) scale(5)"/>
    <path fill="#fcebc2" d="M48.3,-52.3C55.2,-41.4,48.5,-20.7,41.2,-7.2C34,6.2,26.3,12.4,19.3,24C12.4,35.7,6.2,52.8,-5.5,58.3C-17.3,63.9,-34.6,57.9,-50.3,46.2C-66,34.6,-80.2,17.3,-71.7,8.5C-63.3,-0.3,-32.1,-0.6,-16.3,-11.6C-0.6,-22.5,-0.3,-44.2,10.2,-54.4C20.7,-64.6,41.4,-63.3,48.3,-52.3Z" transform="translate(960, 704) scale(10)" />
    <path fill="#ffcba3" d="M59.7,-62.3C72.6,-46.8,74.9,-23.4,64.6,-10.3C54.3,2.8,31.4,5.6,18.5,11.1C5.6,16.6,2.8,24.7,-3.7,28.3C-10.2,32,-20.4,31.3,-21.9,25.8C-23.4,20.4,-16.4,10.2,-21.1,-4.8C-25.9,-19.7,-42.5,-39.4,-40.9,-54.9C-39.4,-70.4,-19.7,-81.7,1.9,-83.6C23.4,-85.5,46.8,-77.9,59.7,-62.3Z" transform="translate(64, 960) scale(4) rotate(-30)"/>
  </g>
  <defs>
    <filter id='noise'>
      <feTurbulence type='fractalNoise' baseFrequency='1' numOctaves='1' stitchTiles='stitch' result="turbulence"/>
      <feGaussianBlur in="SourceGraphic" stdDeviation='64 8' result='blur'/>
      <feBlend mode='color-burn' in='turbulence' in2='blur'/>
    </filter>
  </defs>
</svg>
